<?xml version="1.0" encoding="utf-8"?>
<!-- Generator: Adobe Illustrator 24.3.0, SVG Export Plug-In . SVG Version: 6.00 Build 0)  -->
<svg version="1.1" id="flower-icon" xmlns="http://www.w3.org/2000/svg" xmlns:xlink="http://www.w3.org/1999/xlink" x="0px"
	 y="0px" viewBox="0 0 864 864" style="enable-background:new 0 0 864 864;" xml:space="preserve">
<style type="text/css">
	.st0{fill:#FF2323;}
</style>
<g id="flower-icon-parts">
	<g id="outer-circle">
		<path class="st0" d="M432,743c-83.1,0-161.2-32.3-219.9-91.1S121,515.1,121,432s32.3-161.2,91.1-219.9S348.9,121,432,121
			s161.2,32.3,219.9,91.1S743,348.9,743,432s-32.3,161.2-91.1,219.9S515.1,743,432,743z M432,131c-166,0-301,135-301,301
			c0,166,135,301,301,301c166,0,301-135,301-301C733,266,598,131,432,131z"/>
	</g>
	<g id="flowers-inside">
		<path id="flower-ring-1" class="st0" d="M548,455.1c-5.4-6.3-11.7-12.6-18.5-18.9c-3.4-3.2-7-6.3-10.8-9.5h0
			c-3.3,3.3-6.8,6.5-10.5,9.8c3.8,3.1,7.4,6.3,10.8,9.5c6.6,6,12.6,12.1,17.8,18.1c16.8,19.4,23.8,36.2,18.7,45
			c-5.1,8.8-23.2,11-48.4,6.1c-7-1.4-14.3-3.3-21.9-5.6c-4.5-1.4-9-2.9-13.6-4.6c-7.4-2.7-14.9-5.8-22.6-9.2
			c-5.2-2.3-10.5-4.8-15.8-7.5c-7.5-3.8-15.1-7.9-22.6-12.2c-6.9-4-13.5-8.1-20-12.3c-5.1-3.3-10.1-6.8-14.8-10.2
			c0.3,6.2,0.7,12.2,1.2,18.2c5,3.4,10.1,6.7,15.3,10c3.7,2.3,7.4,4.5,11.1,6.7c4.7,2.7,9.4,5.4,14.2,7.9c5.3,2.8,10.6,5.5,15.8,8
			c11.9,5.7,23.7,10.7,35.1,14.8c4.6,1.7,9.1,3.2,13.6,4.5c7.9,2.4,15.5,4.3,22.8,5.8c32.6,6.5,55.2,2,63.7-12.6
			C577.1,502.1,569.8,480.3,548,455.1z M358.5,360.6c7.1,1.4,14.6,3.3,22.3,5.8c4.5,1.4,9,2.9,13.7,4.6c7,2.6,14.1,5.5,21.4,8.7
			c5.2,2.3,10.5,4.8,15.8,7.5c7.7,3.9,15.5,8.1,23.3,12.6c7.8,4.5,15.3,9.2,22.5,14c5,3.3,9.9,6.8,14.6,10.2
			c-0.1-6.1-0.4-12.1-0.8-18.1c-4.9-3.4-9.9-6.7-15.1-9.9c-4.6-2.9-9.3-5.8-14.1-8.5c-5-2.9-9.9-5.6-14.9-8.3
			c-5.3-2.8-10.6-5.5-15.8-8c-11.6-5.6-23.1-10.4-34.2-14.4c-4.6-1.7-9.2-3.2-13.6-4.5c-7.9-2.4-15.5-4.4-22.8-5.8
			c-32.6-6.5-55.2-2-63.7,12.6c-8.5,14.6-1.2,36.5,20.6,61.6c5.3,6.2,11.4,12.4,18.1,18.6c3.4,3.2,7,6.3,10.7,9.5
			c3.3-3.3,6.8-6.5,10.5-9.8c-3.8-3.1-7.4-6.3-10.8-9.5c-6.4-5.9-12.3-11.9-17.4-17.8c-16.8-19.4-23.8-36.2-18.7-45
			C315.2,357.9,333.3,355.6,358.5,360.6z"/>
		<path id="flower-ring-2" class="st0" d="M431.4,371.2c-5.2,2.7-10.4,5.5-15.6,8.5c-4.7,2.7-9.3,5.5-14,8.3
			c-3.5,2.2-7,4.4-10.4,6.7c-5.2,3.4-10.2,6.9-15.1,10.5c-10.9,7.9-21,16-30.2,24.2c-3.6,3.2-7.1,6.5-10.4,9.8
			c-6.5,6.4-12.4,12.8-17.6,19.2c-21,25.8-27.6,47.9-18.7,62.2c8.9,14.3,31.7,18.1,64.1,10.7c7.1-1.6,14.5-3.8,22.2-6.4
			c4.4-1.5,8.9-3.1,13.5-4.9c-1.1-4.5-2.2-9.2-3.1-14.1c-4.6,1.8-9.1,3.5-13.5,5c-7.5,2.6-14.8,4.7-21.7,6.3
			c-25,5.8-43.2,4.1-48.5-4.6c-5.4-8.6,1.1-25.7,17.3-45.6c4.9-6.1,10.6-12.2,16.9-18.3c3.3-3.3,6.8-6.5,10.5-9.8
			c5.8-5.1,12-10.3,18.5-15.3c4.7-3.6,9.6-7.2,14.6-10.7c6.2-4.3,12.6-8.6,19.2-12.7c7.4-4.6,14.9-8.9,22.2-13
			c5.2-2.8,10.4-5.5,15.6-8C441.9,376.4,436.7,373.7,431.4,371.2z M566,354.5c-8.9-14.3-31.7-18.1-64.1-10.6
			c-6,1.4-12.2,3.1-18.6,5.2c-4.4,1.4-9,3-13.6,4.8c1,4.6,2,9.3,2.8,14.2c4.6-1.8,9.2-3.4,13.6-4.9c6.4-2.1,12.5-3.8,18.4-5.2
			c25-5.8,43.2-4.1,48.6,4.6c5.4,8.6-1.1,25.7-17.3,45.6c-5,6.1-10.8,12.4-17.1,18.6h0c-3.3,3.3-6.8,6.5-10.5,9.8
			c-5.1,4.6-10.6,9.1-16.3,13.6c-4.8,3.7-9.7,7.4-14.8,11c-6.7,4.8-13.7,9.4-21,13.9c-7.6,4.7-15.2,9.2-22.8,13.3
			c-5.2,2.8-10.4,5.5-15.6,8c5.3,2.8,10.6,5.5,15.8,8c5.2-2.7,10.4-5.5,15.6-8.5c4.8-2.8,9.7-5.7,14.5-8.7c4-2.5,8-5,11.8-7.6
			c5.2-3.5,10.4-7.1,15.3-10.7c10.1-7.4,19.6-15.1,28.2-22.8c3.6-3.3,7.1-6.5,10.5-9.8c6.6-6.5,12.6-13,17.9-19.5
			C568.3,391,575,368.9,566,354.5z"/>
		<path id="flower-ring-3" class="st0" d="M492,423.9c-0.1-6.1-0.4-12.1-0.8-18.1c-0.9-14.9-2.7-29.3-5.1-42.7
			c-0.9-4.8-1.8-9.5-2.9-14.1c-1.9-8.3-4.1-16.2-6.6-23.4c-10.8-31.4-26-48.8-42.9-48.8c-16.9,0-32.1,17.3-42.9,48.8
			c-2.8,8.2-5.2,17.1-7.3,26.5c-1,4.6-1.9,9.3-2.7,14.1c4.5,1.4,9,2.9,13.7,4.6c0.8-4.9,1.7-9.6,2.7-14.2c2-9.3,4.3-18,7.1-25.9
			c8.3-24.3,19.4-38.8,29.5-38.8c10.2,0,21.2,14.5,29.5,38.8c2.4,7.1,4.6,14.8,6.4,23c1,4.6,2,9.3,2.8,14.2
			c1.5,8.9,2.8,18.2,3.6,27.9c0.5,5.8,0.9,11.7,1.2,17.8c0.3,6.6,0.5,13.4,0.5,20.2c0,9.2-0.3,18.3-0.9,27.1
			c-0.4,6.2-0.9,12.4-1.6,18.4c5.2-3.5,10.4-7.1,15.3-10.7c0.5-6.1,0.8-12.4,1.1-18.7c0.2-5.3,0.3-10.7,0.3-16.1
			C492.1,430.6,492.1,427.3,492,423.9z M471.6,505c-0.9,4.8-1.9,9.5-3.1,14.1c-1.6,6.3-3.3,12.4-5.2,18
			c-8.3,24.3-19.4,38.8-29.5,38.8c-10.2,0-21.2-14.5-29.5-38.8c-1.8-5.4-3.5-11.1-5-17.1c-1.1-4.5-2.2-9.2-3.1-14.1
			c-1.5-7.7-2.7-15.8-3.7-24.2c-0.7-5.8-1.3-11.8-1.7-18c-0.7-9.7-1-19.6-1-29.8c0-7.1,0.2-14.2,0.5-21.1c0.3-6.1,0.7-12.2,1.3-18.1
			c-5.2,3.4-10.2,6.9-15.1,10.5c-0.4,6-0.7,12.2-0.8,18.4c-0.1,3.4-0.1,6.9-0.1,10.4c0,6.6,0.1,13.1,0.4,19.5
			c0.3,6.2,0.7,12.2,1.2,18.2c1.2,13.7,3,26.9,5.5,39.2c1,4.8,2,9.5,3.2,14c1.5,6.1,3.3,11.9,5.1,17.4c10.8,31.4,26,48.8,42.9,48.8
			c16.9,0,32.1-17.3,42.9-48.8c2-5.8,3.8-12.1,5.5-18.6c1.1-4.5,2.2-9.2,3.1-14C480.8,508.2,476.2,506.7,471.6,505z"/>
	</g>
	<path id="center-ring" class="st0" d="M457.7,421C457.7,421,457.7,421,457.7,421c-0.1-0.2-0.3-0.5-0.4-0.7
		c-4.5-6.9-11.8-11.7-20.3-12.7c-1.1-0.2-2.3-0.2-3.4-0.2c-5.9,0-11.3,1.8-15.8,4.9c-3.8,2.6-7,6.1-9.2,10.2
		c-2.1,4-3.3,8.5-3.3,13.3c0,10.8,6.1,20.2,15,25c3.9,2.1,8.4,3.3,13.2,3.4h0.1c10.3,0,19.3-5.5,24.3-13.8c2.5-4.2,4-9.2,4-14.5
		C461.8,430.3,460.3,425.2,457.7,421z M442.5,453.8c-2.7,1.4-5.8,2.1-9,2.1c-0.9,0-1.8-0.1-2.6-0.2c-9.9-1.3-17.7-9.8-17.7-20.1
		c0-6.1,2.7-11.5,6.9-15.2c3-2.6,6.7-4.3,10.7-4.9c0.9-0.1,1.7-0.2,2.6-0.2c11.2,0,20.3,9.1,20.3,20.3
		C453.7,443.6,449.2,450.5,442.5,453.8z M457.7,421C457.7,421,457.7,421,457.7,421c-0.1-0.2-0.3-0.5-0.4-0.7
		c-4.5-6.9-11.8-11.7-20.3-12.7c-1.1-0.2-2.3-0.2-3.4-0.2c-5.9,0-11.3,1.8-15.8,4.9c-3.8,2.6-7,6.1-9.2,10.2
		c-2.1,4-3.3,8.5-3.3,13.3c0,10.8,6.1,20.2,15,25c3.9,2.1,8.4,3.3,13.2,3.4h0.1c10.3,0,19.3-5.5,24.3-13.8c2.5-4.2,4-9.2,4-14.5
		C461.8,430.3,460.3,425.2,457.7,421z M442.5,453.8c-2.7,1.4-5.8,2.1-9,2.1c-0.9,0-1.8-0.1-2.6-0.2c-9.9-1.3-17.7-9.8-17.7-20.1
		c0-6.1,2.7-11.5,6.9-15.2c3-2.6,6.7-4.3,10.7-4.9c0.9-0.1,1.7-0.2,2.6-0.2c11.2,0,20.3,9.1,20.3,20.3
		C453.7,443.6,449.2,450.5,442.5,453.8z M457.7,421C457.7,421,457.7,421,457.7,421c-0.1-0.2-0.3-0.5-0.4-0.7
		c-4.5-6.9-11.8-11.7-20.3-12.7c-1.1-0.2-2.3-0.2-3.4-0.2c-5.9,0-11.3,1.8-15.8,4.9c-3.8,2.6-7,6.1-9.2,10.2
		c-2.1,4-3.3,8.5-3.3,13.3c0,10.8,6.1,20.2,15,25c3.9,2.1,8.4,3.3,13.2,3.4h0.1c10.3,0,19.3-5.5,24.3-13.8c2.5-4.2,4-9.2,4-14.5
		C461.8,430.3,460.3,425.2,457.7,421z M442.5,453.8c-2.7,1.4-5.8,2.1-9,2.1c-0.9,0-1.8-0.1-2.6-0.2c-9.9-1.3-17.7-9.8-17.7-20.1
		c0-6.1,2.7-11.5,6.9-15.2c3-2.6,6.7-4.3,10.7-4.9c0.9-0.1,1.7-0.2,2.6-0.2c11.2,0,20.3,9.1,20.3,20.3
		C453.7,443.6,449.2,450.5,442.5,453.8z M457.7,421C457.7,421,457.7,421,457.7,421c-0.1-0.2-0.3-0.5-0.4-0.7
		c-4.5-6.9-11.8-11.7-20.3-12.7c-1.1-0.2-2.3-0.2-3.4-0.2c-5.9,0-11.3,1.8-15.8,4.9c-3.8,2.6-7,6.1-9.2,10.2
		c-2.1,4-3.3,8.5-3.3,13.3c0,10.8,6.1,20.2,15,25c3.9,2.1,8.4,3.3,13.2,3.4h0.1c10.3,0,19.3-5.5,24.3-13.8c2.5-4.2,4-9.2,4-14.5
		C461.8,430.3,460.3,425.2,457.7,421z M442.5,453.8c-2.7,1.4-5.8,2.1-9,2.1c-0.9,0-1.8-0.1-2.6-0.2c-9.9-1.3-17.7-9.8-17.7-20.1
		c0-6.1,2.7-11.5,6.9-15.2c3-2.6,6.7-4.3,10.7-4.9c0.9-0.1,1.7-0.2,2.6-0.2c11.2,0,20.3,9.1,20.3,20.3
		C453.7,443.6,449.2,450.5,442.5,453.8z M457.7,421C457.7,421,457.7,421,457.7,421c-0.1-0.2-0.3-0.5-0.4-0.7
		c-4.5-6.9-11.8-11.7-20.3-12.7c-1.1-0.2-2.3-0.2-3.4-0.2c-5.9,0-11.3,1.8-15.8,4.9c-3.8,2.6-7,6.1-9.2,10.2
		c-2.1,4-3.3,8.5-3.3,13.3c0,10.8,6.1,20.2,15,25c3.9,2.1,8.4,3.3,13.2,3.4h0.1c10.3,0,19.3-5.5,24.3-13.8c2.5-4.2,4-9.2,4-14.5
		C461.8,430.3,460.3,425.2,457.7,421z M442.5,453.8c-2.7,1.4-5.8,2.1-9,2.1c-0.9,0-1.8-0.1-2.6-0.2c-9.9-1.3-17.7-9.8-17.7-20.1
		c0-6.1,2.7-11.5,6.9-15.2c3-2.6,6.7-4.3,10.7-4.9c0.9-0.1,1.7-0.2,2.6-0.2c11.2,0,20.3,9.1,20.3,20.3
		C453.7,443.6,449.2,450.5,442.5,453.8z M457.7,421C457.7,421,457.7,421,457.7,421c-0.1-0.2-0.3-0.5-0.4-0.7
		c-4.5-6.9-11.8-11.7-20.3-12.7c-1.1-0.2-2.3-0.2-3.4-0.2c-5.9,0-11.3,1.8-15.8,4.9c-3.8,2.6-7,6.1-9.2,10.2
		c-2.1,4-3.3,8.5-3.3,13.3c0,10.8,6.1,20.2,15,25c3.9,2.1,8.4,3.3,13.2,3.4h0.1c10.3,0,19.3-5.5,24.3-13.8c2.5-4.2,4-9.2,4-14.5
		C461.8,430.3,460.3,425.2,457.7,421z M442.5,453.8c-2.7,1.4-5.8,2.1-9,2.1c-0.9,0-1.8-0.1-2.6-0.2c-9.9-1.3-17.7-9.8-17.7-20.1
		c0-6.1,2.7-11.5,6.9-15.2c3-2.6,6.7-4.3,10.7-4.9c0.9-0.1,1.7-0.2,2.6-0.2c11.2,0,20.3,9.1,20.3,20.3
		C453.7,443.6,449.2,450.5,442.5,453.8z M457.7,421C457.7,421,457.7,421,457.7,421c-0.1-0.2-0.3-0.5-0.4-0.7
		c-4.5-6.9-11.8-11.7-20.3-12.7c-1.1-0.2-2.3-0.2-3.4-0.2c-5.9,0-11.3,1.8-15.8,4.9c-3.8,2.6-7,6.1-9.2,10.2
		c-2.1,4-3.3,8.5-3.3,13.3c0,10.8,6.1,20.2,15,25c3.9,2.1,8.4,3.3,13.2,3.4h0.1c10.3,0,19.3-5.5,24.3-13.8c2.5-4.2,4-9.2,4-14.5
		C461.8,430.3,460.3,425.2,457.7,421z M442.5,453.8c-2.7,1.4-5.8,2.1-9,2.1c-0.9,0-1.8-0.1-2.6-0.2c-9.9-1.3-17.7-9.8-17.7-20.1
		c0-6.1,2.7-11.5,6.9-15.2c3-2.6,6.7-4.3,10.7-4.9c0.9-0.1,1.7-0.2,2.6-0.2c11.2,0,20.3,9.1,20.3,20.3
		C453.7,443.6,449.2,450.5,442.5,453.8z M457.7,421C457.7,421,457.7,421,457.7,421c-0.1-0.2-0.3-0.5-0.4-0.7
		c-4.5-6.9-11.8-11.7-20.3-12.7c-1.1-0.2-2.3-0.2-3.4-0.2c-5.9,0-11.3,1.8-15.8,4.9c-3.8,2.6-7,6.1-9.2,10.2
		c-2.1,4-3.3,8.5-3.3,13.3c0,10.8,6.1,20.2,15,25c3.9,2.1,8.4,3.3,13.2,3.4h0.1c10.3,0,19.3-5.5,24.3-13.8c2.5-4.2,4-9.2,4-14.5
		C461.8,430.3,460.3,425.2,457.7,421z M442.5,453.8c-2.7,1.4-5.8,2.1-9,2.1c-0.9,0-1.8-0.1-2.6-0.2c-9.9-1.3-17.7-9.8-17.7-20.1
		c0-6.1,2.7-11.5,6.9-15.2c3-2.6,6.7-4.3,10.7-4.9c0.9-0.1,1.7-0.2,2.6-0.2c11.2,0,20.3,9.1,20.3,20.3
		C453.7,443.6,449.2,450.5,442.5,453.8z M457.7,421C457.7,421,457.7,421,457.7,421c-0.1-0.2-0.3-0.5-0.4-0.7
		c-4.5-6.9-11.8-11.7-20.3-12.7c-1.1-0.2-2.3-0.2-3.4-0.2c-5.9,0-11.3,1.8-15.8,4.9c-3.8,2.6-7,6.1-9.2,10.2
		c-2.1,4-3.3,8.5-3.3,13.3c0,10.8,6.1,20.2,15,25c3.9,2.1,8.4,3.3,13.2,3.4h0.1c10.3,0,19.3-5.5,24.3-13.8c2.5-4.2,4-9.2,4-14.5
		C461.8,430.3,460.3,425.2,457.7,421z M442.5,453.8c-2.7,1.4-5.8,2.1-9,2.1c-0.9,0-1.8-0.1-2.6-0.2c-9.9-1.3-17.7-9.8-17.7-20.1
		c0-6.1,2.7-11.5,6.9-15.2c3-2.6,6.7-4.3,10.7-4.9c0.9-0.1,1.7-0.2,2.6-0.2c11.2,0,20.3,9.1,20.3,20.3
		C453.7,443.6,449.2,450.5,442.5,453.8z"/>
</g>
</svg>
