<?xml version="1.0" encoding="utf-8"?>
<!-- Generator: Adobe Illustrator 24.3.0, SVG Export Plug-In . SVG Version: 6.00 Build 0)  -->
<svg version="1.1" id="heart-icon" xmlns="http://www.w3.org/2000/svg" xmlns:xlink="http://www.w3.org/1999/xlink" x="0px" y="0px"
	 viewBox="0 0 864 864" style="enable-background:new 0 0 864 864;" xml:space="preserve">
<style type="text/css">
	.st0{fill:#FF2323;}
</style>
<g id="heart-icon-parts">
	<g id="outer-circle">
		<path class="st0" d="M432,743c-83.1,0-161.2-32.3-219.9-91.1S121,515.1,121,432s32.3-161.2,91.1-219.9S348.9,121,432,121
			s161.2,32.3,219.9,91.1S743,348.9,743,432s-32.3,161.2-91.1,219.9S515.1,743,432,743z M432,131c-166,0-301,135-301,301
			c0,166,135,301,301,301c166,0,301-135,301-301C733,266,598,131,432,131z"/>
	</g>
	<g id="heart-border">
		<path class="st0" d="M437,588L282.7,432.3l-0.3-0.4c-5-7.9-20.7-36.2-11.4-69.5c7.6-27.3,27.5-41.8,34.9-47.2
			c9.5-7,29.5-18.7,56.8-19.2c37.3-0.7,63.5,20.3,74.7,31.3c9.4-10.3,28.6-27,58.2-31.2c34.6-4.9,60.8,10.8,70.4,17.8
			c28.5,20.6,37,45.5,39.1,62.8c4,32.6-11.6,56.8-18.5,65.7l-0.5,0.5L437,588z M290.5,426.1l146.5,147.9L579,436
			c6.3-8.1,19.8-29.6,16.3-58.1c-1.9-15.3-9.5-37.4-35.1-55.9c-8.7-6.3-32.2-20.4-63.1-16c-30.7,4.4-49,23.7-55.5,31.9l-3.7,4.6
			l-4-4.4c-6.9-7.7-32.5-32.8-71.1-32.1c-24.5,0.4-42.5,11-51.1,17.2c-6.7,4.9-24.5,17.9-31.2,41.8
			C272.6,393.8,285.8,418.5,290.5,426.1z"/>
	</g>
	<path id="heart-inner-line-1" class="st0" d="M356.1,332.9c-0.1,2.1-0.4,4-0.9,6c2.1,0,4.3,0,6.5,0.2c19.3,1.3,34.2,9.7,44.5,18
		c1.6-2.5,3.4-4.7,5.6-6.7c0-0.2,0-0.4,0-0.6c-11.1-9-27.2-18-48-19.8c-0.5,0-1-0.1-1.5-0.1c-2.1-0.1-4.2-0.2-6.3-0.2
		C356.1,330.7,356.2,331.8,356.1,332.9z"/>
	<path id="heart-inner-line-2" class="st0" d="M543.6,342.2c-5.7-4.1-17.9-11.7-34.5-14.9c0.1,3.2-0.2,6.3-0.9,9.2
		c14.4,3,25,9.5,30,13.2c16.4,11.9,24.4,25.5,28.1,37.2c0.2-0.1,0.5-0.2,0.7-0.2c2.8-0.9,5.6-1.4,8.4-1.5
		C571.4,371.7,562.5,355.9,543.6,342.2z"/>
</g>
</svg>
