<?xml version="1.0" encoding="utf-8"?>
<!-- Generator: Adobe Illustrator 24.3.0, SVG Export Plug-In . SVG Version: 6.00 Build 0)  -->
<svg version="1.1" id="smile-icon" xmlns="http://www.w3.org/2000/svg" xmlns:xlink="http://www.w3.org/1999/xlink" x="0px" y="0px"
	 viewBox="0 0 864 864" style="enable-background:new 0 0 864 864;" xml:space="preserve">
<style type="text/css">
	.st0{fill:#FF2323;}
</style>
<g id="smile-icon-parts">
	<path id="outer-border" class="st0" d="M432,743c-83.1,0-161.2-32.3-219.9-91.1S121,515.1,121,432s32.3-161.2,91.1-219.9
		S348.9,121,432,121s161.2,32.3,219.9,91.1S743,348.9,743,432s-32.3,161.2-91.1,219.9S515.1,743,432,743z M432,131
		c-166,0-301,135-301,301c0,166,135,301,301,301c166,0,301-135,301-301C733,266,598,131,432,131z"/>
	<g id="smile_1_">
		<path id="inner-border" class="st0" d="M431.9,595.1c-88.4,0-160.3-71.9-160.3-160.3c0-88.4,71.9-160.3,160.3-160.3
			c88.4,0,160.3,71.9,160.3,160.3C592.2,523.2,520.3,595.1,431.9,595.1z M431.9,288.6c-80.6,0-146.3,65.6-146.3,146.3
			c0,80.6,65.6,146.3,146.3,146.3c80.6,0,146.3-65.6,146.3-146.3C578.2,354.2,512.5,288.6,431.9,288.6z"/>
		<ellipse id="eye-1" class="st0" cx="386.2" cy="383.9" rx="15.4" ry="26.4"/>
		<ellipse id="eye-2" class="st0" cx="486.9" cy="383.9" rx="15.4" ry="26.4"/>
		<path id="smile" class="st0" d="M552.6,416.2c-2.6-0.5-5.7-0.8-9.1-0.4c-0.6,0.1-1.1,0.2-1.6,0.3c0.3,1.9,0.6,4.2,0.9,6.8
			c0,0,0.6,5.7,0.6,11.3c0,61-49.6,110.5-110.5,110.5c-69.9,0-109.1-66.4-110.5-110.5c-0.2-6.8,0.5-12.8,1.4-17.8
			c-0.4,0-1.1-0.1-1.9-0.1c-0.9,0-1.4,0.1-2.3,0.1c-0.9,0-1.5,0-2.1-0.1c-1-0.1-2.4-0.1-4.2-0.1c-0.3,1.6-0.6,3.5-0.8,5.8
			c0,0-0.6,6-0.6,12.2c0,66.8,54.3,121.1,121.1,121.1c66.8,0,121.1-54.3,121.1-121.1C553.9,428,553.4,422,552.6,416.2z"/>
	</g>
</g>
</svg>
