<?xml version="1.0" encoding="utf-8"?>
<!-- Generator: Adobe Illustrator 24.3.0, SVG Export Plug-In . SVG Version: 6.00 Build 0)  -->
<svg version="1.1" id="star-icon" xmlns="http://www.w3.org/2000/svg" xmlns:xlink="http://www.w3.org/1999/xlink" x="0px" y="0px"
	 viewBox="0 0 864 864" style="enable-background:new 0 0 864 864;" xml:space="preserve">
<style type="text/css">
	.st0{fill:#FF2323;}
</style>
<g id="star-icon-parts">
	<path id="outer-border" class="st0" d="M432,743c-83.1,0-161.2-32.3-219.9-91.1S121,515.1,121,432s32.3-161.2,91.1-219.9
		S348.9,121,432,121s161.2,32.3,219.9,91.1S743,348.9,743,432s-32.3,161.2-91.1,219.9S515.1,743,432,743z M432,131
		c-166,0-301,135-301,301c0,166,135,301,301,301c166,0,301-135,301-301C733,266,598,131,432,131z"/>
	<path id="star" class="st0" d="M590.7,395.1c-1.2-3.6-4.3-6.3-8.1-6.8L484,374.1l-44.1-88.2c-1.7-3.4-5.2-5.5-8.9-5.5c0,0,0,0,0,0
		c-3.8,0-7.3,2.2-8.9,5.6l-43.1,88.2l-97.5,14.7c-3.8,0.6-6.9,3.2-8,6.8s-0.2,7.6,2.5,10.2l70.6,69.1l-16.7,97
		c-0.6,3.7,0.9,7.5,4,9.8c1.7,1.3,3.8,1.9,5.9,1.9c1.6,0,3.2-0.4,4.6-1.1L432,537l86.7,45.6c1.5,0.8,3.1,1.1,4.7,1.1
		c2.1,0,4.1-0.6,5.9-1.9c3.1-2.2,4.6-6,4-9.7L517,474l71.1-68.6C590.9,402.7,591.9,398.8,590.7,395.1z M506.3,470.5l17,103.2
		l-91.4-48l-92.4,48l17.5-102.2l-74.3-72.8l102.7-15.5l45.4-92.9l46.5,92.9l103.7,15L506.3,470.5z"/>
</g>
</svg>
